<svg width="16" height="16" viewBox="0 0 16 16" fill="none" xmlns="http://www.w3.org/2000/svg">
<path fill-rule="evenodd" clip-rule="evenodd" d="M2.98665 1.06641H2.93332C2.68905 1.06641 2.47892 1.06641 2.29332 1.11014C2.006 1.1788 1.74329 1.32566 1.53431 1.53445C1.32533 1.74324 1.17823 2.00581 1.10932 2.29307C1.06665 2.47867 1.06665 2.68774 1.06665 2.93307V5.59974C1.06665 5.84401 1.06665 6.05414 1.11038 6.23974C1.17904 6.52706 1.3259 6.78977 1.53469 6.99875C1.74348 7.20773 2.00606 7.35483 2.29332 7.42374C2.47892 7.46641 2.68798 7.46641 2.93332 7.46641H5.59998C5.84425 7.46641 6.05438 7.46641 6.23998 7.42267C6.52731 7.35402 6.79001 7.20716 6.99899 6.99836C7.20797 6.78957 7.35507 6.527 7.42398 6.23974C7.46665 6.05414 7.46665 5.84507 7.46665 5.59974V2.93307C7.46665 2.68881 7.46665 2.47867 7.42292 2.29307C7.35426 2.00575 7.2074 1.74305 6.99861 1.53407C6.78982 1.32508 6.52724 1.17799 6.23998 1.10907C6.05438 1.06641 5.84532 1.06641 5.59998 1.06641H5.54665H2.98665ZM2.54185 2.14801C2.58772 2.13734 2.65918 2.13307 2.98665 2.13307H5.54665C5.87518 2.13307 5.94558 2.13627 5.99145 2.14801C6.08727 2.17092 6.17487 2.21993 6.24453 2.28959C6.3142 2.35926 6.3632 2.44685 6.38612 2.54267C6.39678 2.58747 6.39998 2.65787 6.39998 2.98641V5.54641C6.39998 5.87494 6.39678 5.94534 6.38505 5.99121C6.36214 6.08703 6.31313 6.17462 6.24347 6.24429C6.1738 6.31395 6.0862 6.36296 5.99038 6.38587C5.94665 6.39547 5.87625 6.39974 5.54665 6.39974H2.98665C2.65812 6.39974 2.58772 6.39654 2.54185 6.38481C2.44603 6.36189 2.35843 6.31289 2.28877 6.24322C2.2191 6.17356 2.1701 6.08596 2.14718 5.99014C2.13758 5.94641 2.13332 5.87601 2.13332 5.54641V2.98641C2.13332 2.65787 2.13652 2.58747 2.14825 2.54161C2.17116 2.44579 2.22017 2.35819 2.28983 2.28852C2.3595 2.21886 2.4471 2.16985 2.54292 2.14694M10.4533 1.06641H10.4C10.1557 1.06641 9.94558 1.06641 9.75998 1.11014C9.47266 1.1788 9.20996 1.32566 9.00098 1.53445C8.792 1.74324 8.6449 2.00581 8.57598 2.29307C8.53332 2.47867 8.53332 2.68774 8.53332 2.93307V5.59974C8.53332 5.84401 8.53332 6.05414 8.57705 6.23974C8.64571 6.52706 8.79257 6.78977 9.00136 6.99875C9.21015 7.20773 9.47272 7.35483 9.75998 7.42374C9.94558 7.46641 10.1547 7.46641 10.4 7.46641H13.0667C13.3109 7.46641 13.5211 7.46641 13.7067 7.42267C13.994 7.35402 14.2567 7.20716 14.4657 6.99836C14.6746 6.78957 14.8217 6.527 14.8907 6.23974C14.9333 6.05414 14.9333 5.84507 14.9333 5.59974V2.93307C14.9333 2.68881 14.9333 2.47867 14.8896 2.29307C14.8209 2.00575 14.6741 1.74305 14.4653 1.53407C14.2565 1.32508 13.9939 1.17799 13.7067 1.10907C13.5211 1.06641 13.312 1.06641 13.0667 1.06641H13.0133H10.4533ZM10.0085 2.14801C10.0544 2.13734 10.1259 2.13307 10.4533 2.13307H13.0133C13.3419 2.13307 13.4123 2.13627 13.4581 2.14801C13.5539 2.17092 13.6415 2.21993 13.7112 2.28959C13.7809 2.35926 13.8299 2.44685 13.8528 2.54267C13.8635 2.58747 13.8667 2.65787 13.8667 2.98641V5.54641C13.8667 5.87494 13.8624 5.94534 13.8517 5.99121C13.8288 6.08703 13.7798 6.17462 13.7101 6.24429C13.6405 6.31395 13.5529 6.36296 13.4571 6.38587C13.4123 6.39654 13.3419 6.39974 13.0133 6.39974H10.4533C10.1248 6.39974 10.0544 6.39654 10.0085 6.38481C9.9127 6.36189 9.8251 6.31289 9.75544 6.24322C9.68577 6.17356 9.63676 6.08596 9.61385 5.99014C9.60425 5.94641 9.59998 5.87601 9.59998 5.54641V2.98641C9.59998 2.65787 9.60318 2.58747 9.61492 2.54161C9.63783 2.44579 9.68684 2.35819 9.7565 2.28852C9.82617 2.21886 9.91376 2.16985 10.0096 2.14694M2.93332 8.53307H5.59998C5.84425 8.53307 6.05438 8.53307 6.23998 8.57681C6.52731 8.64546 6.79001 8.79232 6.99899 9.00112C7.20797 9.20991 7.35507 9.47248 7.42398 9.75974C7.46665 9.94534 7.46665 10.1544 7.46665 10.3997V13.0664C7.46665 13.3107 7.46665 13.5208 7.42292 13.7064C7.35426 13.9937 7.2074 14.2564 6.99861 14.4654C6.78982 14.6744 6.52724 14.8215 6.23998 14.8904C6.05438 14.9331 5.84532 14.9331 5.59998 14.9331H2.93332C2.68905 14.9331 2.47892 14.9331 2.29332 14.8893C2.006 14.8207 1.74329 14.6738 1.53431 14.465C1.32533 14.2562 1.17823 13.9937 1.10932 13.7064C1.06665 13.5208 1.06665 13.3117 1.06665 13.0664V10.3997C1.06665 10.1555 1.06665 9.94534 1.11038 9.75974C1.17904 9.47242 1.3259 9.20971 1.53469 9.00073C1.74348 8.79175 2.00606 8.64465 2.29332 8.57574C2.47892 8.53307 2.68798 8.53307 2.93332 8.53307ZM2.98665 9.59974C2.65812 9.59974 2.58772 9.60294 2.54185 9.61467C2.44603 9.63759 2.35843 9.68659 2.28877 9.75626C2.2191 9.82592 2.1701 9.91352 2.14718 10.0093C2.13758 10.0531 2.13332 10.1235 2.13332 10.4531V13.0131C2.13332 13.3416 2.13652 13.412 2.14825 13.4579C2.17116 13.5537 2.22017 13.6413 2.28983 13.711C2.3595 13.7806 2.4471 13.8296 2.54292 13.8525C2.58772 13.8632 2.65812 13.8664 2.98665 13.8664H5.54665C5.87518 13.8664 5.94558 13.8621 5.99145 13.8515C6.08727 13.8286 6.17487 13.7796 6.24453 13.7099C6.3142 13.6402 6.3632 13.5526 6.38612 13.4568C6.39678 13.412 6.39998 13.3416 6.39998 13.0131V10.4531C6.39998 10.1245 6.39678 10.0541 6.38505 10.0083C6.36214 9.91246 6.31313 9.82486 6.24347 9.75519C6.1738 9.68553 6.0862 9.63652 5.99038 9.61361C5.94665 9.60401 5.87625 9.59974 5.54665 9.59974H2.98665ZM10.4533 8.53307H10.4C10.1557 8.53307 9.94558 8.53307 9.75998 8.57681C9.47266 8.64546 9.20996 8.79232 9.00098 9.00112C8.792 9.20991 8.6449 9.47248 8.57598 9.75974C8.53332 9.94534 8.53332 10.1544 8.53332 10.3997V13.0664C8.53332 13.3107 8.53332 13.5208 8.57705 13.7064C8.64571 13.9937 8.79257 14.2564 9.00136 14.4654C9.21015 14.6744 9.47272 14.8215 9.75998 14.8904C9.94558 14.9341 10.1557 14.9341 10.4 14.9341H13.0667C13.3109 14.9341 13.5211 14.9341 13.7067 14.8904C13.9938 14.8216 14.2563 14.6746 14.465 14.4659C14.6738 14.2571 14.8208 13.9946 14.8896 13.7075C14.9333 13.5219 14.9333 13.3117 14.9333 13.0675V10.3997C14.9333 10.1555 14.9333 9.94534 14.8896 9.75974C14.8209 9.47242 14.6741 9.20971 14.4653 9.00073C14.2565 8.79175 13.9939 8.64465 13.7067 8.57574C13.5211 8.53307 13.312 8.53307 13.0667 8.53307H13.0133H10.4533ZM10.0085 9.61467C10.0544 9.60401 10.1259 9.59974 10.4533 9.59974H13.0133C13.3419 9.59974 13.4123 9.60294 13.4581 9.61467C13.5539 9.63759 13.6415 9.68659 13.7112 9.75626C13.7809 9.82592 13.8299 9.91352 13.8528 10.0093C13.8635 10.0541 13.8667 10.1245 13.8667 10.4531V13.0131C13.8667 13.3416 13.8624 13.412 13.8517 13.4579C13.8288 13.5537 13.7798 13.6413 13.7101 13.711C13.6405 13.7806 13.5529 13.8296 13.4571 13.8525C13.4123 13.8632 13.3419 13.8664 13.0133 13.8664H10.4533C10.1248 13.8664 10.0544 13.8621 10.0085 13.8515C9.9127 13.8286 9.8251 13.7796 9.75544 13.7099C9.68577 13.6402 9.63676 13.5526 9.61385 13.4568C9.60425 13.4131 9.59998 13.3427 9.59998 13.0131V10.4531C9.59998 10.1245 9.60318 10.0541 9.61492 10.0083C9.63783 9.91246 9.68684 9.82486 9.7565 9.75519C9.82617 9.68553 9.91376 9.63652 10.0096 9.61361" fill="#1E1E1E"/>
</svg>
