<svg width="16" height="16" viewBox="0 0 16 16" fill="none" xmlns="http://www.w3.org/2000/svg">
<path d="M7.66667 5.99967C7.66667 5.55765 7.84226 5.13372 8.15482 4.82116C8.46738 4.5086 8.89131 4.33301 9.33333 4.33301C10.0667 4.33301 10.6867 4.80634 10.9133 5.45967C10.9667 5.63301 11 5.81301 11 5.99967C11 6.21854 10.9569 6.43527 10.8731 6.63748C10.7894 6.83969 10.6666 7.02342 10.5118 7.17819C10.3571 7.33295 10.1733 7.45572 9.97114 7.53947C9.76893 7.62323 9.5522 7.66634 9.33333 7.66634C8.60667 7.66634 8 7.20634 7.76 6.55967C7.7 6.38634 7.66667 6.19301 7.66667 5.99967ZM3.33333 5.99967C3.33333 8.99967 6.72 13.1063 7.33333 13.873L6.66667 14.6663C6.66667 14.6663 2 9.49967 2 5.99967C2 3.88634 3.40667 2.09967 5.33333 1.52634C4.10667 2.62634 3.33333 4.21967 3.33333 5.99967ZM9.33333 1.33301C11.9067 1.33301 14 3.41967 14 5.99967C14 9.49967 9.33333 14.6663 9.33333 14.6663C9.33333 14.6663 4.66667 9.49967 4.66667 5.99967C4.66667 3.41967 6.76 1.33301 9.33333 1.33301ZM9.33333 2.66634C7.49333 2.66634 6 4.15967 6 5.99967C6 6.66634 6 7.99967 9.33333 12.473C12.6667 7.99967 12.6667 6.66634 12.6667 5.99967C12.6667 4.15967 11.1733 2.66634 9.33333 2.66634Z" fill="#FBFAFC"/>
</svg>
