<svg width="16" height="16" viewBox="0 0 16 16" fill="none" xmlns="http://www.w3.org/2000/svg">
<path d="M13.4999 8.37971V7.61471L14.4599 6.77471C14.6368 6.61874 14.753 6.40523 14.7877 6.17192C14.8225 5.9386 14.7737 5.70051 14.6499 5.49971L13.4699 3.49972C13.3822 3.34785 13.2561 3.22171 13.1043 3.13395C12.9525 3.04619 12.7802 2.99989 12.6049 2.99971C12.4962 2.99888 12.3881 3.01577 12.2849 3.04972L11.0699 3.45972C10.8601 3.32032 10.6413 3.19504 10.4149 3.08472L10.1599 1.82472C10.1142 1.59452 9.98893 1.38774 9.80611 1.24057C9.62329 1.0934 9.39453 1.01522 9.15988 1.01971H6.81988C6.58523 1.01522 6.35647 1.0934 6.17366 1.24057C5.99084 1.38774 5.8656 1.59452 5.81988 1.82472L5.56488 3.08472C5.33685 3.19502 5.11637 3.32029 4.90488 3.45972L3.71488 3.02972C3.61053 3.00253 3.50247 2.9924 3.39488 2.99971C3.21952 2.99989 3.04729 3.04619 2.89546 3.13395C2.74364 3.22171 2.61756 3.34785 2.52988 3.49972L1.34988 5.49971C1.23318 5.70021 1.18981 5.93504 1.22721 6.164C1.26461 6.39295 1.38044 6.60178 1.55488 6.75471L2.49988 7.61971V8.38472L1.55488 9.22472C1.37552 9.37871 1.25651 9.59128 1.21898 9.82469C1.18145 10.0581 1.22783 10.2973 1.34988 10.4997L2.52988 12.4997C2.61756 12.6516 2.74364 12.7777 2.89546 12.8655C3.04729 12.9532 3.21952 12.9995 3.39488 12.9997C3.50356 13.0005 3.61164 12.9837 3.71488 12.9497L4.92988 12.5397C5.13965 12.6791 5.35847 12.8044 5.58488 12.9147L5.83988 14.1747C5.8856 14.4049 6.01084 14.6117 6.19366 14.7589C6.37647 14.906 6.60523 14.9842 6.83988 14.9797H9.19988C9.43453 14.9842 9.66329 14.906 9.84611 14.7589C10.0289 14.6117 10.1542 14.4049 10.1999 14.1747L10.4549 12.9147C10.6829 12.8044 10.9034 12.6791 11.1149 12.5397L12.3249 12.9497C12.4281 12.9837 12.5362 13.0005 12.6449 12.9997C12.8202 12.9995 12.9925 12.9532 13.1443 12.8655C13.2961 12.7777 13.4222 12.6516 13.5099 12.4997L14.6499 10.4997C14.7666 10.2992 14.81 10.0644 14.7726 9.83543C14.7352 9.60648 14.6193 9.39765 14.4449 9.24471L13.4999 8.37971ZM12.6049 11.9997L10.8899 11.4197C10.4884 11.7598 10.0296 12.0256 9.53488 12.2047L9.17988 13.9997H6.81988L6.46488 12.2247C5.97409 12.0405 5.51774 11.7751 5.11488 11.4397L3.39488 11.9997L2.21488 9.99971L3.57488 8.79972C3.48243 8.28214 3.48243 7.75229 3.57488 7.23471L2.21488 5.99971L3.39488 3.99972L5.10988 4.57972C5.51135 4.23966 5.97018 3.97384 6.46488 3.79472L6.81988 1.99971H9.17988L9.53488 3.77472C10.0257 3.95893 10.482 4.22429 10.8849 4.55972L12.6049 3.99972L13.7849 5.99971L12.4249 7.19971C12.5173 7.71729 12.5173 8.24714 12.4249 8.76472L13.7849 9.99971L12.6049 11.9997Z" fill="#1E1E1E"/>
<path d="M8 11C7.40666 11 6.82664 10.8241 6.33329 10.4944C5.83994 10.1648 5.45543 9.69623 5.22836 9.14805C5.0013 8.59987 4.94189 7.99667 5.05765 7.41473C5.1734 6.83279 5.45912 6.29824 5.87868 5.87868C6.29824 5.45912 6.83279 5.1734 7.41473 5.05765C7.99667 4.94189 8.59987 5.0013 9.14805 5.22836C9.69623 5.45543 10.1648 5.83994 10.4944 6.33329C10.8241 6.82664 11 7.40666 11 8C11.004 8.39508 10.9292 8.78699 10.7798 9.15278C10.6305 9.51857 10.4096 9.85088 10.1303 10.1303C9.85088 10.4096 9.51857 10.6305 9.15278 10.7798C8.78699 10.9292 8.39508 11.004 8 11ZM8 6C7.73567 5.99384 7.47284 6.04137 7.22741 6.1397C6.98197 6.23803 6.75904 6.38512 6.57208 6.57208C6.38512 6.75904 6.23803 6.98197 6.1397 7.22741C6.04137 7.47284 5.99384 7.73567 6 8C5.99384 8.26433 6.04137 8.52716 6.1397 8.77259C6.23803 9.01803 6.38512 9.24097 6.57208 9.42793C6.75904 9.61488 6.98197 9.76198 7.22741 9.86031C7.47284 9.95864 7.73567 10.0062 8 10C8.26433 10.0062 8.52716 9.95864 8.77259 9.86031C9.01803 9.76198 9.24097 9.61488 9.42793 9.42793C9.61488 9.24097 9.76198 9.01803 9.86031 8.77259C9.95864 8.52716 10.0062 8.26433 10 8C10.0062 7.73567 9.95864 7.47284 9.86031 7.22741C9.76198 6.98197 9.61488 6.75904 9.42793 6.57208C9.24097 6.38512 9.01803 6.23803 8.77259 6.1397C8.52716 6.04137 8.26433 5.99384 8 6Z" fill="#1E1E1E"/>
</svg>
