<svg width="16" height="16" viewBox="0 0 16 16" fill="none" xmlns="http://www.w3.org/2000/svg">
<g clip-path="url(#clip0_8001_10382)">
<path d="M8.57153 0.571289H2.85725C2.55414 0.571289 2.26345 0.691697 2.04913 0.906024C1.8348 1.12035 1.71439 1.41104 1.71439 1.71415V11.9999L0.571533 15.4284L5.14296 14.2856H14.2858C14.5889 14.2856 14.8796 14.1652 15.0939 13.9508C15.3083 13.7365 15.4287 13.4458 15.4287 13.1427V7.42843" stroke="#1E1E1E" stroke-linecap="round" stroke-linejoin="round"/>
<path d="M9.55772 9.29924L6.12915 9.91638L6.70058 6.4421L12.1063 1.05924C12.2125 0.951983 12.3388 0.866839 12.4781 0.808731C12.6174 0.750622 12.7668 0.720703 12.9177 0.720703C13.0686 0.720703 13.2181 0.750622 13.3573 0.808731C13.4966 0.866839 13.623 0.951983 13.7291 1.05924L14.9406 2.27067C15.0476 2.37699 15.1325 2.50342 15.1904 2.64267C15.2483 2.78193 15.2782 2.93127 15.2782 3.0821C15.2782 3.23292 15.2483 3.38226 15.1904 3.52152C15.1325 3.66078 15.0476 3.7872 14.9406 3.89353L9.55772 9.29924Z" stroke="#1E1E1E" stroke-linecap="round" stroke-linejoin="round"/>
</g>
<defs>
<clipPath id="clip0_8001_10382">
<rect width="16" height="16" fill="white"/>
</clipPath>
</defs>
</svg>
