<svg width="16" height="16" viewBox="0 0 16 16" fill="none" xmlns="http://www.w3.org/2000/svg">
<path d="M3.03033 4.28033C2.88968 4.42098 2.69891 4.5 2.5 4.5C2.30109 4.5 2.11032 4.42098 1.96967 4.28033C1.82902 4.13968 1.75 3.94891 1.75 3.75C1.75 3.55109 1.82902 3.36032 1.96967 3.21967C2.11032 3.07902 2.30109 3 2.5 3C2.69891 3 2.88968 3.07902 3.03033 3.21967C3.17098 3.36032 3.25 3.55109 3.25 3.75C3.25 3.94891 3.17098 4.13968 3.03033 4.28033ZM5.57322 3.57322C5.62011 3.52634 5.6837 3.5 5.75 3.5H14.25C14.3163 3.5 14.3799 3.52634 14.4268 3.57322C14.4737 3.62011 14.5 3.6837 14.5 3.75C14.5 3.8163 14.4737 3.87989 14.4268 3.92678C14.3799 3.97366 14.3163 4 14.25 4H5.75C5.6837 4 5.62011 3.97366 5.57322 3.92678C5.52634 3.87989 5.5 3.8163 5.5 3.75C5.5 3.6837 5.52634 3.62011 5.57322 3.57322ZM5.57322 12.0732C5.62011 12.0263 5.6837 12 5.75 12H14.25C14.3163 12 14.3799 12.0263 14.4268 12.0732C14.4737 12.1201 14.5 12.1837 14.5 12.25C14.5 12.3163 14.4737 12.3799 14.4268 12.4268C14.3799 12.4737 14.3163 12.5 14.25 12.5H5.75C5.6837 12.5 5.62011 12.4737 5.57322 12.4268C5.52634 12.3799 5.5 12.3163 5.5 12.25C5.5 12.1837 5.52634 12.1201 5.57322 12.0732ZM5.5 8C5.5 7.9337 5.52634 7.87011 5.57322 7.82322C5.62011 7.77634 5.6837 7.75 5.75 7.75H14.25C14.3163 7.75 14.3799 7.77634 14.4268 7.82322C14.4737 7.87011 14.5 7.9337 14.5 8C14.5 8.0663 14.4737 8.12989 14.4268 8.17678C14.3799 8.22366 14.3163 8.25 14.25 8.25H5.75C5.6837 8.25 5.62011 8.22366 5.57322 8.17678C5.52634 8.12989 5.5 8.0663 5.5 8ZM3.25 8C3.25 8.19891 3.17098 8.38968 3.03033 8.53033C2.88968 8.67098 2.69891 8.75 2.5 8.75C2.30109 8.75 2.11032 8.67098 1.96967 8.53033C1.82902 8.38968 1.75 8.19891 1.75 8C1.75 7.80109 1.82902 7.61032 1.96967 7.46967C2.11032 7.32902 2.30109 7.25 2.5 7.25C2.69891 7.25 2.88968 7.32902 3.03033 7.46967C3.17098 7.61032 3.25 7.80109 3.25 8ZM3.03033 12.7803C2.88968 12.921 2.69891 13 2.5 13C2.30109 13 2.11032 12.921 1.96967 12.7803C1.82902 12.6397 1.75 12.4489 1.75 12.25C1.75 12.0511 1.82902 11.8603 1.96967 11.7197C2.11032 11.579 2.30109 11.5 2.5 11.5C2.69891 11.5 2.88968 11.579 3.03033 11.7197C3.17098 11.8603 3.25 12.0511 3.25 12.25C3.25 12.4489 3.17098 12.6397 3.03033 12.7803Z" stroke="#1E1E1E"/>
</svg>
