<svg width="325" height="256" viewBox="0 0 325 256" fill="none" xmlns="http://www.w3.org/2000/svg">
<path d="M113.54 56.4419H197.058C197.058 56.4419 189.348 25.8262 154.668 25.8262C123.822 25.8262 113.54 56.4419 113.54 56.4419Z" fill="#3366FF"/>
<path d="M156.194 0.5H154.405V25.8145H156.194V0.5Z" fill="#3366FF"/>
<path d="M276.562 61.2132C274.523 61.5988 273.532 63.5501 273.338 65.2769C273.144 67.0036 273.407 68.834 272.533 70.4111C271.549 72.184 269.198 73.4963 269.122 75.4476C269.074 76.639 269.926 77.7499 269.885 78.9529C269.816 80.9099 267.417 82.4065 267.285 84.3404C267.195 85.7506 268.325 87.0975 268.055 88.4905C267.847 89.5726 266.827 90.4244 266.397 91.4605C265.545 93.5326 267.257 95.8062 269.483 96.9689C270.73 97.6197 272.133 98.0366 273.594 98.1905C275.055 98.3444 276.539 98.2316 277.942 97.86C279.345 97.4883 280.633 96.8668 281.717 96.0388C282.801 95.2109 283.653 94.1964 284.216 93.0664C285.45 90.5799 285.18 87.7767 284.909 85.1002C284.077 76.7503 283.458 68.3889 283.051 60.016" fill="#263238"/>
<path d="M270.641 90.6721C271.06 90.4557 271.387 90.1357 271.577 89.7569C271.777 89.3065 271.857 88.8254 271.812 88.3467C271.736 87.7121 271.566 87.0877 271.306 86.4876C270.975 85.7333 270.851 84.9268 270.946 84.1277C271.119 83.2297 271.896 82.493 272.596 81.7677C272.973 81.4128 273.288 81.0156 273.532 80.5878C273.776 80.1551 273.816 79.6621 273.643 79.2064C273.282 78.2681 272.173 77.5774 271.667 76.4896C271.429 75.951 271.39 75.3657 271.556 74.8088C271.713 74.2867 271.946 73.7823 272.249 73.3065C272.835 72.4498 273.3 71.5402 273.636 70.5955C274.121 68.7709 273.892 67.0268 274.225 65.5936C274.41 64.4457 275.023 63.3748 275.979 62.5315C276.25 62.3043 276.558 62.1105 276.894 61.9559C277.01 61.9057 277.134 61.8689 277.262 61.8465C276.827 62.0451 276.428 62.2931 276.076 62.5833C275.191 63.435 274.633 64.4876 274.475 65.6051C274.353 66.3686 274.288 67.1375 274.281 67.9075C274.278 68.8137 274.172 69.7177 273.962 70.607C273.631 71.5734 273.165 72.5045 272.575 73.3814C272.055 74.2851 271.577 75.3441 272.034 76.3342C272.492 77.3242 273.594 78.0091 274.017 79.0682C274.208 79.5914 274.161 80.1546 273.885 80.6511C273.615 81.1219 273.265 81.5581 272.845 81.9462C272.152 82.6714 271.396 83.3621 271.23 84.168C271.133 84.9323 271.242 85.705 271.549 86.43C271.797 87.0487 271.95 87.6907 272.006 88.341C272.041 88.8418 271.934 89.3424 271.694 89.803C271.545 90.0917 271.306 90.3421 271.001 90.5282C270.893 90.5942 270.77 90.6429 270.641 90.6721Z" fill="#455A64"/>
<path d="M265.219 104.32L258.979 119.285L232.882 120.436L228.528 128.494L255.776 130.797C257.063 131.236 258.444 131.453 259.835 131.436C261.227 131.419 262.6 131.169 263.871 130.699C265.143 130.229 266.286 129.551 267.233 128.704C268.179 127.857 268.909 126.86 269.379 125.772L276.652 108.919L265.219 104.32Z" fill="#B78876"/>
<path d="M319.166 245.529C319.166 245.529 300.045 195.096 299.636 193.461C299.268 191.976 306.569 155.685 307.498 146.263L281.658 147.063V147.276L270.675 147.782L280.507 250.882H292.397L291.219 216.663C298.554 233.004 309.065 249.662 309.065 249.662L319.166 245.529Z" fill="#B78876"/>
<path d="M291.704 228.941C291.704 228.63 291.558 217.475 291.558 217.475C291.413 218.143 287.003 207.793 287.107 207.166C287.163 206.838 291.704 228.941 291.704 228.941Z" fill="#A36957"/>
<path d="M286.608 202.262C286.547 202.467 286.521 202.678 286.532 202.889C286.493 203.464 286.493 204.041 286.532 204.616C286.532 204.979 286.594 205.37 286.65 205.796C286.705 206.222 286.781 206.671 286.899 207.137C287.146 208.155 287.472 209.159 287.877 210.142C288.736 212.231 289.693 214.056 290.366 215.38C290.685 215.955 290.962 216.502 291.198 216.939C291.283 217.143 291.399 217.336 291.544 217.515C291.507 217.316 291.437 217.122 291.336 216.939C291.177 216.56 290.934 216.013 290.643 215.339C290.033 213.992 289.118 212.15 288.265 210.084C287.862 209.116 287.531 208.128 287.274 207.126C287.149 206.665 287.066 206.222 286.989 205.807C286.913 205.393 286.858 205.002 286.823 204.656C286.74 203.943 286.705 203.367 286.684 202.964C286.697 202.728 286.672 202.492 286.608 202.262Z" fill="#A36957"/>
<path d="M280.285 251.406V250.479L292.467 250.036L292.501 253.864L291.753 253.904C288.404 254.065 274.731 254.537 272.499 253.979C269.996 253.357 280.285 251.406 280.285 251.406Z" fill="#455A64"/>
<path d="M292.66 253.633C292.591 253.637 292.522 253.637 292.452 253.633L291.856 253.668L289.651 253.748C287.793 253.812 285.221 253.869 282.385 253.881C279.549 253.892 276.97 253.852 275.105 253.806L272.907 253.731H272.304H272.096C272.165 253.727 272.235 253.727 272.304 253.731H272.907L275.112 253.766C276.97 253.766 279.543 253.812 282.378 253.8C285.214 253.789 287.793 253.748 289.651 253.708L291.856 253.662H292.66V253.633Z" fill="#263238"/>
<path d="M276.312 253.956C276.211 253.655 276.072 253.363 275.896 253.087C275.677 252.832 275.423 252.598 275.141 252.39C275.519 252.503 275.833 252.728 276.021 253.023C276.25 253.295 276.354 253.626 276.312 253.956Z" fill="#263238"/>
<path d="M279.904 252.442C279.904 252.442 279.703 252.286 279.522 252.056C279.342 251.826 279.231 251.625 279.266 251.607C279.3 251.59 279.467 251.757 279.647 251.987C279.828 252.217 279.939 252.425 279.904 252.442Z" fill="#263238"/>
<path d="M280.887 252.033C280.887 252.062 280.666 251.953 280.458 251.797C280.25 251.642 280.097 251.498 280.125 251.475C280.153 251.452 280.347 251.555 280.555 251.711C280.763 251.866 280.915 251.981 280.887 252.033Z" fill="#263238"/>
<path d="M281.505 251.055C281.301 251.117 281.083 251.141 280.867 251.124C280.655 251.147 280.439 251.13 280.236 251.072C280.438 251.01 280.653 250.987 280.867 251.003C281.082 250.979 281.3 250.996 281.505 251.055Z" fill="#263238"/>
<path d="M281.713 250.387C281.506 250.499 281.266 250.558 281.019 250.56C280.784 250.586 280.544 250.558 280.326 250.479C280.555 250.447 280.787 250.432 281.019 250.433C281.248 250.399 281.48 250.384 281.713 250.387Z" fill="#263238"/>
<path d="M279.494 251.561C279.235 251.602 278.97 251.602 278.711 251.561C278.431 251.533 278.154 251.483 277.886 251.412C277.719 251.374 277.559 251.319 277.407 251.251C277.315 251.205 277.246 251.134 277.213 251.049C277.2 251.001 277.205 250.951 277.226 250.905C277.247 250.859 277.283 250.819 277.331 250.79C277.523 250.713 277.733 250.672 277.947 250.67C278.16 250.669 278.371 250.707 278.565 250.781C278.758 250.855 278.93 250.964 279.067 251.1C279.203 251.236 279.302 251.396 279.356 251.567C279.369 251.624 279.369 251.683 279.356 251.74C279.277 251.532 279.155 251.337 278.995 251.164C278.811 250.992 278.57 250.868 278.302 250.807C277.995 250.725 277.661 250.746 277.373 250.865C277.255 250.94 277.303 251.061 277.435 251.13C277.577 251.193 277.725 251.245 277.879 251.285C278.14 251.356 278.406 251.412 278.676 251.452C279.196 251.544 279.494 251.544 279.494 251.561Z" fill="#263238"/>
<path d="M279.293 251.596C279.192 251.462 279.157 251.302 279.196 251.147C279.221 250.978 279.295 250.816 279.411 250.675C279.476 250.579 279.569 250.498 279.682 250.44C279.795 250.381 279.923 250.347 280.056 250.341C280.134 250.356 280.203 250.396 280.248 250.451C280.293 250.507 280.311 250.574 280.299 250.641C280.282 250.744 280.236 250.842 280.167 250.928C280.062 251.071 279.938 251.204 279.799 251.326C279.679 251.44 279.527 251.529 279.356 251.585C279.356 251.585 279.508 251.469 279.723 251.262C279.848 251.144 279.957 251.014 280.049 250.877C280.153 250.738 280.229 250.491 280.049 250.462C279.869 250.433 279.661 250.612 279.543 250.738C279.433 250.863 279.357 251.007 279.321 251.159C279.293 251.303 279.283 251.45 279.293 251.596Z" fill="#263238"/>
<path d="M292.404 250.882C292.404 250.882 292.057 250.882 291.51 250.911C290.796 250.982 290.121 251.217 289.561 251.591C289.001 251.964 288.578 252.461 288.341 253.024C288.161 253.455 288.147 253.749 288.119 253.743C288.092 253.737 288.119 253.668 288.119 253.542C288.137 253.356 288.179 253.173 288.244 252.995C288.465 252.405 288.889 251.883 289.464 251.492C290.047 251.109 290.754 250.878 291.496 250.83C291.726 250.807 291.959 250.807 292.189 250.83C292.263 250.84 292.335 250.857 292.404 250.882Z" fill="#263238"/>
<path d="M286.573 252.828C285.991 252.94 285.394 252.988 284.798 252.972C284.204 252.996 283.609 252.954 283.03 252.845C283.03 252.81 283.82 252.845 284.798 252.845C285.775 252.845 286.566 252.793 286.573 252.828Z" fill="#263238"/>
<path d="M288.945 252.81C288.945 252.81 288.882 252.948 288.799 253.098C288.716 253.248 288.674 253.386 288.632 253.38C288.591 253.374 288.57 253.225 288.667 253.046C288.764 252.868 288.917 252.781 288.945 252.81Z" fill="#263238"/>
<path d="M289.839 251.884C289.839 251.884 289.79 252.01 289.666 252.114C289.541 252.218 289.416 252.287 289.381 252.264C289.346 252.241 289.43 252.137 289.554 252.028C289.679 251.918 289.804 251.855 289.839 251.884Z" fill="#263238"/>
<path d="M291.115 251.458C291.115 251.492 290.948 251.492 290.768 251.544C290.588 251.596 290.463 251.676 290.428 251.653C290.393 251.63 290.497 251.492 290.719 251.429C290.942 251.366 291.129 251.423 291.115 251.458Z" fill="#263238"/>
<path d="M292.023 251.25C292.023 251.285 291.975 251.337 291.871 251.366C291.767 251.394 291.676 251.4 291.662 251.366C291.649 251.331 291.718 251.279 291.815 251.25C291.912 251.222 292.009 251.222 292.023 251.25Z" fill="#263238"/>
<path d="M308.822 250.514L308.364 249.668L319.256 245.126L321.177 248.58L320.484 248.873C317.509 250.157 305.272 255.234 302.956 255.487C300.398 255.792 308.822 250.514 308.822 250.514Z" fill="#455A64"/>
<path d="M321.219 248.332L321.039 248.424L320.505 248.655L318.536 249.483C316.872 250.168 314.556 251.095 311.97 252.074C309.384 253.052 307.013 253.887 305.293 254.48L303.248 255.165L302.693 255.343C302.629 255.368 302.562 255.385 302.492 255.395L302.679 255.32L303.227 255.119L305.252 254.399C306.964 253.789 309.321 252.937 311.908 251.959C314.494 250.98 316.816 250.071 318.494 249.403L320.477 248.614L321.025 248.401L321.219 248.332Z" fill="#263238"/>
<path d="M306.485 254.186C306.245 253.943 305.973 253.723 305.674 253.53C305.349 253.37 305.002 253.243 304.641 253.15C305.039 253.146 305.429 253.243 305.759 253.428C306.089 253.613 306.342 253.878 306.485 254.186Z" fill="#263238"/>
<path d="M308.988 251.585C308.988 251.585 308.725 251.516 308.447 251.366C308.17 251.216 307.969 251.072 307.99 251.044C308.011 251.015 308.253 251.113 308.531 251.262C308.808 251.412 309.009 251.556 308.988 251.585Z" fill="#263238"/>
<path d="M309.668 250.882C309.668 250.911 309.432 250.882 309.161 250.813C308.891 250.744 308.69 250.658 308.697 250.623C308.872 250.61 309.049 250.633 309.21 250.692C309.473 250.744 309.681 250.825 309.668 250.882Z" fill="#263238"/>
<path d="M309.765 249.777C309.765 249.812 309.536 249.933 309.217 250.059C309.033 250.151 308.827 250.208 308.614 250.226C308.614 250.192 308.843 250.071 309.155 249.944C309.341 249.853 309.549 249.796 309.765 249.777Z" fill="#263238"/>
<path d="M309.626 249.098C309.626 249.098 309.425 249.328 309.065 249.495C308.861 249.61 308.619 249.67 308.372 249.668C308.57 249.557 308.782 249.462 309.003 249.386C309.342 249.23 309.592 249.069 309.626 249.098Z" fill="#263238"/>
<path d="M308.205 250.928C307.994 251.049 307.759 251.138 307.512 251.193C307.239 251.259 306.961 251.307 306.68 251.337C306.509 251.355 306.337 251.355 306.167 251.337C306.059 251.33 305.96 251.289 305.889 251.222C305.857 251.181 305.84 251.133 305.84 251.084C305.84 251.035 305.857 250.987 305.889 250.946C306.1 250.734 306.393 250.589 306.718 250.536C307.043 250.484 307.38 250.527 307.671 250.658C307.843 250.733 307.994 250.837 308.115 250.963C308.198 251.055 308.233 251.113 308.226 251.118C308.055 250.96 307.85 250.829 307.622 250.733C307.378 250.637 307.106 250.603 306.839 250.635C306.68 250.648 306.526 250.688 306.386 250.751C306.245 250.815 306.121 250.9 306.021 251.003C305.945 251.113 306.021 251.205 306.208 251.222C306.367 251.233 306.527 251.233 306.687 251.222C306.963 251.199 307.236 251.158 307.505 251.101C307.9 251.009 308.205 250.911 308.205 250.928Z" fill="#263238"/>
<path d="M308.011 251.026C307.856 250.935 307.748 250.8 307.706 250.646C307.645 250.484 307.631 250.313 307.664 250.146C307.676 250.035 307.722 249.929 307.797 249.837C307.872 249.746 307.975 249.671 308.094 249.622C308.267 249.576 308.67 249.869 308.697 249.979C308.725 250.088 308.496 250.03 308.482 250.123C308.46 250.286 308.413 250.446 308.344 250.6C308.293 250.748 308.198 250.883 308.066 250.992C308.066 250.992 308.15 250.836 308.247 250.577C308.296 250.424 308.331 250.269 308.351 250.111C308.351 249.95 308.351 249.702 308.129 249.743C307.907 249.783 307.844 250.007 307.796 250.169C307.754 250.318 307.754 250.474 307.796 250.623C307.853 250.763 307.925 250.897 308.011 251.026Z" fill="#263238"/>
<path d="M319.624 245.909C319.624 245.909 319.291 246.007 318.82 246.243C318.203 246.549 317.702 246.991 317.371 247.521C317.05 248.055 316.913 248.653 316.976 249.247C317.017 249.708 317.149 249.973 317.121 249.984C317.076 249.927 317.041 249.865 317.017 249.8C316.949 249.624 316.9 249.443 316.872 249.259C316.772 248.646 316.9 248.022 317.238 247.471C317.577 246.92 318.109 246.467 318.764 246.174C318.961 246.084 319.167 246.01 319.381 245.955C319.459 245.93 319.541 245.914 319.624 245.909Z" fill="#263238"/>
<path d="M315.263 249.673C314.285 250.238 313.193 250.651 312.039 250.894C312.039 250.859 312.767 250.629 313.654 250.318C314.541 250.007 315.242 249.645 315.263 249.673Z" fill="#263238"/>
<path d="M317.419 248.85C317.454 248.85 317.419 248.994 317.419 249.161C317.419 249.328 317.419 249.466 317.419 249.478C317.419 249.489 317.28 249.351 317.28 249.161C317.28 248.971 317.384 248.833 317.419 248.85Z" fill="#263238"/>
<path d="M317.773 247.699C317.808 247.699 317.773 247.831 317.732 247.97C317.69 248.108 317.586 248.211 317.551 248.2C317.517 248.188 317.551 248.067 317.593 247.929C317.635 247.791 317.732 247.687 317.773 247.699Z" fill="#263238"/>
<path d="M318.73 246.853C318.73 246.888 318.591 246.939 318.452 247.049C318.313 247.158 318.237 247.273 318.202 247.262C318.168 247.25 318.202 247.089 318.355 246.957C318.508 246.824 318.723 246.853 318.73 246.853Z" fill="#263238"/>
<path d="M319.458 246.381C319.458 246.381 319.458 246.473 319.375 246.536C319.291 246.6 319.215 246.634 319.187 246.611C319.159 246.588 319.187 246.519 319.27 246.456C319.354 246.392 319.43 246.358 319.458 246.381Z" fill="#263238"/>
<path d="M305.82 129.225L303.795 108.676L314.195 108.832C314.195 108.832 314.674 105.798 313.141 99.1562C312.198 95.081 308.933 92.5829 305.265 91.0979V91.0403L304.946 90.9713C301.927 89.8459 298.703 89.1475 295.406 88.9049L282.614 89.0258C282.614 89.0258 272.845 87.9897 267.458 93.7974C265.378 96.0249 258.923 111.272 258.923 111.272L274.281 117.408L272.845 108.953C272.845 108.953 273.137 115.083 274.079 117.011C274.599 118.093 276.159 121.455 276.159 121.455L275.958 131.596L305.82 129.225Z" fill="#3366FF"/>
<path d="M298.769 105.695L296.869 112.407H314.778L313.599 101.148L298.769 105.695Z" fill="#3366FF"/>
<path d="M314.777 112.406C313.995 112.287 313.202 112.221 312.406 112.211C310.936 112.142 308.94 112.078 306.666 112.09C304.392 112.101 302.388 112.182 300.918 112.274C300.123 112.297 299.332 112.378 298.554 112.516C299.347 112.568 300.145 112.568 300.939 112.516C302.402 112.476 304.405 112.429 306.666 112.424C308.926 112.418 310.93 112.424 312.399 112.452C313.192 112.489 313.988 112.474 314.777 112.406Z" fill="#263238"/>
<path d="M297.992 101.096C297.907 101.669 297.888 102.247 297.937 102.823C297.937 103.876 297.992 105.327 298.068 106.933C298.145 108.538 298.235 109.995 298.318 111.042C298.322 111.623 298.396 112.201 298.54 112.769C298.625 112.196 298.644 111.618 298.596 111.042C298.596 109.989 298.54 108.533 298.464 106.927C298.388 105.321 298.297 103.87 298.214 102.817C298.211 102.239 298.137 101.662 297.992 101.096Z" fill="#263238"/>
<g opacity="0.3">
<path opacity="0.3" d="M281.699 106.91C281.699 106.91 285.678 131.413 296.869 130.762C296.869 130.762 301.909 130.716 303.525 127.936V126.842L281.699 106.91Z" fill="black"/>
</g>
<g opacity="0.3">
<path opacity="0.3" d="M297.992 102.541L295.85 114.553L297.236 116.66L299.524 112.539L298.554 112.516L297.992 102.541Z" fill="black"/>
</g>
<path d="M276.097 121.466C275.964 121.287 275.861 121.093 275.792 120.891C275.619 120.516 275.39 119.97 275.099 119.285C274.404 117.5 273.833 115.684 273.386 113.845C272.941 112.006 272.658 110.142 272.54 108.268C272.499 107.548 272.485 106.967 272.499 106.541C272.481 106.333 272.497 106.124 272.547 105.919C272.603 105.919 272.644 106.806 272.79 108.222C272.985 110.079 273.302 111.925 273.74 113.753C274.253 115.894 274.87 117.811 275.341 119.187C275.563 119.826 275.75 120.372 275.903 120.821C275.998 121.029 276.063 121.246 276.097 121.466Z" fill="#263238"/>
<path d="M280.617 128.506C280.52 128.506 280.243 128.005 280 127.355C279.792 126.956 279.699 126.522 279.73 126.088C280.036 126.44 280.246 126.843 280.347 127.268C280.546 127.659 280.638 128.082 280.617 128.506Z" fill="#263238"/>
<path d="M282.164 128.414C281.639 127.259 281.617 125.989 282.101 124.822C282.155 125.42 282.155 126.02 282.101 126.618C282.177 127.215 282.198 127.815 282.164 128.414Z" fill="#263238"/>
<path d="M274.592 117.691C274.544 117.76 270.973 116.355 266.612 114.548C262.251 112.74 258.75 111.209 258.791 111.134C258.833 111.059 262.411 112.47 266.772 114.277C271.133 116.085 274.634 117.616 274.592 117.691Z" fill="#263238"/>
<path d="M280.888 91.0116C280.964 88.0992 280.985 85.037 280.985 85.037C280.985 85.037 276.485 84.3175 275.702 79.402C274.953 74.7167 277.047 63.7171 277.047 63.7171C283.62 61.6565 290.449 63.5272 294.949 67.9477L293.832 91.5872C293.701 94.3328 290.754 96.428 287.218 96.2898C283.64 96.1459 280.812 93.786 280.888 91.0116Z" fill="#B78876"/>
<path d="M276.7 72.5064C276.694 72.6677 276.762 72.8249 276.891 72.9459C277.02 73.0668 277.2 73.1422 277.393 73.1568C277.492 73.1647 277.591 73.1559 277.685 73.1309C277.779 73.1058 277.867 73.0652 277.941 73.0113C278.016 72.9574 278.076 72.8915 278.119 72.8176C278.162 72.7436 278.186 72.6632 278.191 72.5812C278.197 72.4204 278.128 72.2639 277.999 72.1439C277.87 72.024 277.69 71.9497 277.497 71.9365C277.399 71.9241 277.298 71.9295 277.202 71.9524C277.106 71.9754 277.017 72.0153 276.941 72.0694C276.865 72.1235 276.805 72.1906 276.763 72.266C276.721 72.3414 276.7 72.4234 276.7 72.5064Z" fill="#263238"/>
<path d="M276.423 71.6834C276.513 71.7639 277.116 71.4243 277.913 71.4474C278.711 71.4704 279.3 71.8158 279.397 71.7352C279.494 71.6546 279.356 71.551 279.099 71.384C278.752 71.1752 278.335 71.0606 277.906 71.0559C277.484 71.0426 277.068 71.1436 276.721 71.3437C276.464 71.4992 276.374 71.6431 276.423 71.6834Z" fill="#263238"/>
<path d="M284.958 72.9325C284.95 73.0942 285.018 73.2522 285.147 73.3734C285.276 73.4946 285.457 73.5697 285.651 73.5829C285.75 73.5954 285.852 73.5899 285.948 73.5666C286.045 73.5434 286.134 73.5029 286.21 73.4482C286.286 73.3934 286.346 73.3256 286.388 73.2495C286.429 73.1734 286.449 73.0907 286.448 73.0073C286.456 72.8462 286.388 72.6889 286.259 72.5686C286.129 72.4483 285.949 72.3744 285.755 72.3626C285.656 72.3502 285.555 72.3556 285.459 72.3785C285.363 72.4015 285.274 72.4414 285.199 72.4955C285.123 72.5496 285.062 72.6167 285.021 72.6921C284.979 72.7675 284.958 72.8495 284.958 72.9325Z" fill="#263238"/>
<path d="M284.902 72.1093C284.992 72.1957 285.596 71.856 286.393 71.8733C287.19 71.8906 287.78 72.2417 287.884 72.1611C287.988 72.0805 287.835 71.9769 287.579 71.8158C287.237 71.6015 286.821 71.4844 286.393 71.4819C285.969 71.4713 285.552 71.5721 285.2 71.7697C284.951 71.9251 284.861 72.069 284.902 72.1093Z" fill="#263238"/>
<path d="M281.796 77.0539C281.371 76.9325 280.928 76.857 280.479 76.8294C280.271 76.8294 280.077 76.7661 280.049 76.651C280.033 76.4711 280.086 76.2914 280.202 76.1387L280.853 74.8436C281.46 73.7428 281.958 72.6032 282.344 71.4359C281.634 72.4935 281.027 73.5965 280.528 74.7342C280.313 75.1889 280.098 75.6264 279.897 76.0408C279.762 76.2465 279.718 76.4846 279.772 76.7143C279.799 76.7767 279.843 76.8331 279.901 76.879C279.959 76.9249 280.028 76.9592 280.105 76.9791C280.22 77.0068 280.339 77.0222 280.458 77.0252C280.901 77.0817 281.351 77.0914 281.796 77.0539Z" fill="#263238"/>
<path d="M280.985 85.0371C283.759 85.1293 286.51 84.5814 288.931 83.4542C288.931 83.4542 286.913 86.7755 281.027 86.1941L280.985 85.0371Z" fill="#A36957"/>
<path d="M287.509 70.1467C287.343 70.3596 286.719 70.2675 286.025 70.1467C285.332 70.0258 284.722 69.9279 284.639 69.6804C284.556 69.4329 285.284 69.1048 286.213 69.2602C287.142 69.4156 287.676 69.9625 287.509 70.1467Z" fill="#263238"/>
<path d="M279.418 69.168C279.356 69.4155 278.69 69.5076 277.927 69.5364C277.165 69.5652 276.492 69.5364 276.402 69.2831C276.312 69.0299 276.957 68.673 277.879 68.6384C278.801 68.6039 279.48 68.932 279.418 69.168Z" fill="#263238"/>
<path d="M281.81 78.6711C281.723 78.6539 281.631 78.6616 281.549 78.6929C281.467 78.7242 281.401 78.7773 281.36 78.8438C281.32 78.9025 281.3 78.9688 281.301 79.036C281.302 79.1032 281.324 79.1691 281.365 79.2271C281.406 79.285 281.464 79.3331 281.534 79.3665C281.605 79.3999 281.684 79.4175 281.765 79.4175C281.846 79.4175 281.926 79.3999 281.996 79.3665C282.066 79.3331 282.125 79.285 282.166 79.2271C282.207 79.1691 282.229 79.1032 282.23 79.036C282.231 78.9688 282.21 78.9025 282.171 78.8438C282.121 78.7665 282.041 78.7056 281.944 78.671C281.847 78.6365 281.739 78.6304 281.637 78.6539" fill="#A36957"/>
<path d="M281.997 78.7401C281.997 78.7113 281.865 78.5444 281.511 78.6077C281.406 78.6306 281.309 78.6761 281.231 78.7398C281.153 78.8034 281.097 78.8829 281.068 78.9703C281.03 79.0806 281.034 79.1975 281.077 79.3061C281.12 79.4148 281.201 79.5103 281.31 79.5805C281.426 79.6461 281.562 79.6812 281.702 79.6812C281.842 79.6812 281.978 79.6461 282.094 79.5805C282.186 79.5289 282.259 79.4566 282.303 79.3719C282.347 79.2872 282.361 79.1938 282.343 79.1027C282.274 78.7977 282.004 78.7516 281.99 78.7919C281.976 78.8322 282.087 78.9358 282.066 79.1142C282.061 79.1583 282.044 79.2008 282.015 79.2379C281.986 79.2751 281.946 79.3057 281.9 79.3272C281.846 79.353 281.785 79.3666 281.723 79.3666C281.661 79.3666 281.6 79.353 281.546 79.3272C281.498 79.2931 281.461 79.2493 281.439 79.1998C281.417 79.1504 281.411 79.0971 281.421 79.0452C281.429 78.9997 281.45 78.9565 281.483 78.9194C281.516 78.8823 281.559 78.8523 281.609 78.8322C281.803 78.7343 281.976 78.7804 281.997 78.7401Z" fill="#263238"/>
<path d="M292.259 73.7209C291.565 75.0678 289.846 76.1096 290.082 77.5659C290.234 78.5041 290.962 79.379 290.823 80.323C290.643 81.4742 289.166 82.326 288.951 83.506C288.695 84.9507 290.394 86.0731 291.066 87.42C292.058 89.3885 290.796 91.5988 290.761 93.7515C290.802 95.3859 291.555 96.9526 292.881 98.1612C294.207 99.3699 296.015 100.139 297.972 100.325C299.552 100.434 301.334 100.037 302.132 98.9088C302.825 97.9764 302.672 96.7906 303.074 95.7603C303.685 94.2177 305.453 93.0896 305.848 91.501C306.541 88.623 302.312 86.2055 302.589 83.2585C302.707 81.9979 303.643 80.9043 304.038 79.6841C304.29 78.8821 304.309 78.0421 304.095 77.2328C303.88 76.4234 303.438 75.6677 302.804 75.0275C301.757 73.9972 300.246 73.3008 299.337 72.1956C298.332 70.9236 298.297 69.3177 297.951 67.8154C297.485 65.9894 296.47 64.2912 294.999 62.8795C293.528 61.4678 291.65 60.3887 289.541 59.743C287.432 59.0974 285.159 58.9063 282.937 59.1876C280.714 59.4689 278.614 60.2134 276.832 61.3515C276.832 61.3515 275.827 65.1446 280.521 65.7835C285.214 66.4224 287.385 65.6857 287.911 67.2455C287.787 67.8881 287.848 68.546 288.089 69.1653C288.33 69.7846 288.745 70.3477 289.298 70.8085C291.212 72.5237 293.035 72.1553 292.259 73.7209Z" fill="#263238"/>
<path d="M299.712 100.031C299.567 100.036 299.423 100.024 299.282 99.9969C298.875 99.937 298.476 99.8465 298.089 99.7263C296.658 99.2707 295.402 98.5008 294.456 97.4988C293.793 96.8074 293.273 96.0294 292.917 95.1964C292.512 94.2478 292.299 93.2501 292.286 92.2437C292.272 91.1344 292.44 90.0286 292.785 88.957C292.974 88.3911 293.206 87.8355 293.479 87.2936C293.765 86.7542 294.017 86.2028 294.234 85.6416C294.425 85.0887 294.425 84.5024 294.234 83.9494C294.031 83.405 293.769 82.8771 293.451 82.3723C293.13 81.8716 292.858 81.3499 292.64 80.8124C292.426 80.2804 292.376 79.7126 292.494 79.1605C292.771 78.0784 293.562 77.2725 294.033 76.4494C294.482 75.6875 294.697 74.845 294.657 73.9974C294.594 72.757 294.052 71.5664 293.111 70.6014C292.747 70.2634 292.355 69.9461 291.939 69.6517C292.426 69.8785 292.86 70.1746 293.222 70.5266C294.232 71.4901 294.827 72.705 294.914 73.9802C294.971 74.8647 294.761 75.7471 294.304 76.5473C293.825 77.3992 293.056 78.2107 292.82 79.2008C292.584 80.1908 293.146 81.2326 293.763 82.2341C294.099 82.7534 294.373 83.2991 294.581 83.863C294.786 84.4652 294.786 85.1027 294.581 85.7049C294.35 86.2856 294.084 86.8562 293.784 87.4144C293.511 87.9446 293.279 88.4887 293.09 89.0434C292.746 90.0879 292.576 91.1666 292.584 92.2494C292.563 94.0936 293.28 95.8915 294.623 97.3607C295.521 98.3501 296.716 99.1262 298.089 99.6112C299.122 99.9451 299.719 99.9969 299.712 100.031Z" fill="#455A64"/>
<path d="M299.018 70.9873C298.68 71.0599 298.334 71.1024 297.985 71.114C297.034 71.1984 296.073 71.1771 295.129 71.0506C294.413 70.9626 293.725 70.7569 293.106 70.4456C292.487 70.1342 291.949 69.7235 291.523 69.2374C291.127 68.6225 290.811 67.9741 290.58 67.3034C290.285 66.6334 289.728 66.0643 289 65.6859C287.481 64.8857 285.699 64.7879 284.146 64.6325C282.714 64.5732 281.323 64.2127 280.104 63.5848C279.288 63.1358 278.698 62.4538 278.447 61.668C278.387 61.4551 278.37 61.2351 278.399 61.0176C278.399 60.8679 278.44 60.7931 278.454 60.7931C278.462 61.0782 278.507 61.3618 278.586 61.6393C278.873 62.374 279.462 63.0015 280.25 63.4122C281.446 63.9916 282.797 64.316 284.181 64.3562C285.734 64.5058 287.578 64.5807 289.201 65.4326C289.995 65.8465 290.6 66.4683 290.92 67.1997C291.137 67.8535 291.437 68.4863 291.815 69.0878C292.622 70.0075 293.832 70.6275 295.184 70.8146C296.098 70.9557 297.029 71.0079 297.957 70.9701C298.311 70.9535 298.666 70.9593 299.018 70.9873Z" fill="#455A64"/>
<path d="M297.299 66.3016C297.038 66.3742 296.763 66.4073 296.487 66.3995C295.195 66.4067 293.951 65.9935 293.021 65.2483C292.597 64.8952 292.235 64.494 291.946 64.0567C291.322 63.1818 290.719 62.1054 289.422 61.6564C288.173 61.3085 286.843 61.2118 285.54 61.3743C284.441 61.5026 283.325 61.5026 282.226 61.3743C281.461 61.2862 280.741 61.0232 280.146 60.6145C279.992 60.5032 279.857 60.3755 279.744 60.2346C279.661 60.1348 279.626 60.083 279.64 60.0792C279.64 60.0792 279.834 60.2634 280.236 60.5224C280.829 60.8725 281.518 61.0941 282.24 61.1671C283.319 61.2682 284.41 61.2527 285.484 61.1211C286.844 60.9367 288.238 61.0356 289.54 61.4089C290.21 61.6587 290.783 62.057 291.197 62.5601C291.563 63.0089 291.899 63.4739 292.203 63.9531C292.476 64.3715 292.814 64.7585 293.208 65.1044C293.556 65.3968 293.956 65.6434 294.394 65.8354C295.039 66.115 295.747 66.2778 296.474 66.3132C297.008 66.3074 297.292 66.2729 297.299 66.3016Z" fill="#455A64"/>
<path d="M301.778 98.7878C301.743 98.7878 301.965 98.4079 302.221 97.6942C302.569 96.6922 302.723 95.651 302.679 94.609C302.629 93.0666 302.122 91.5583 301.202 90.2173C300.696 89.4632 299.927 88.7898 299.296 87.961C298.962 87.5387 298.727 87.0682 298.602 86.5738C298.493 86.0534 298.545 85.5185 298.755 85.0197C299.143 84.0239 299.836 83.1893 299.989 82.2741C300.141 81.3589 299.615 80.5473 299.088 79.7818C298.816 79.4093 298.568 79.025 298.346 78.6306C298.143 78.2481 298.01 77.8427 297.951 77.4276C297.885 76.6962 297.913 75.9612 298.034 75.2346C298.256 74.2076 298.141 73.15 297.701 72.1725C297.505 71.8301 297.226 71.5245 296.883 71.2746C296.883 71.2746 296.917 71.2746 296.966 71.3091C297.048 71.343 297.123 71.3877 297.188 71.4415C297.459 71.629 297.679 71.8626 297.833 72.1264C298.334 73.1123 298.49 74.1956 298.283 75.2519C298.188 75.9649 298.176 76.684 298.249 77.3989C298.42 78.203 298.803 78.9658 299.372 79.6321C299.668 80.0211 299.921 80.4315 300.128 80.8582C300.346 81.3188 300.418 81.8184 300.336 82.3087C300.169 83.3159 299.455 84.1678 299.095 85.106C298.905 85.5587 298.855 86.0434 298.949 86.5162C299.07 86.9735 299.291 87.4086 299.601 87.7998C300.19 88.5999 300.987 89.2848 301.493 90.0734C302.422 91.4597 302.918 93.017 302.936 94.6033C302.957 95.665 302.761 96.7221 302.353 97.7287C302.242 98.0012 302.108 98.2666 301.951 98.5231C301.909 98.6177 301.85 98.7069 301.778 98.7878Z" fill="#455A64"/>
<path d="M273.538 206.038C273.538 206.038 268.865 169.292 268.595 155.714C268.325 142.136 275.951 128.736 275.951 128.736L305.82 127.706C305.82 127.706 311.727 141.479 311.831 147.276C312.039 158.523 308.232 169.626 308.669 178.548L309.667 206.061" fill="#263238"/>
<path d="M310.673 160.86C310.517 160.972 310.353 161.076 310.181 161.17L309.91 161.326L309.619 161.562C309.362 161.746 309.13 161.953 308.926 162.178C307.962 163.156 307.262 164.912 306.589 167.093C306.246 168.303 305.739 169.477 305.078 170.593C304.877 170.898 304.645 171.189 304.385 171.462C304.26 171.6 304.142 171.75 303.996 171.882L303.539 172.262C302.883 172.771 302.122 173.176 301.292 173.459C299.621 174.069 297.729 174.357 296.009 175.077C294.248 175.864 292.886 177.151 292.175 178.703C291.329 180.263 290.788 181.897 290.095 183.429C289.402 184.96 288.466 186.422 286.975 187.354C285.55 188.176 283.857 188.62 282.122 188.626C280.513 188.707 279.023 188.666 277.685 188.833C276.48 188.937 275.329 189.298 274.343 189.881C273.622 190.348 273.083 190.981 272.79 191.7C272.604 192.153 272.563 192.639 272.672 193.11C272.755 193.432 272.859 193.588 272.838 193.593C272.727 193.449 272.647 193.289 272.603 193.121C272.456 192.641 272.475 192.137 272.658 191.665C272.933 190.91 273.477 190.242 274.218 189.749C275.229 189.115 276.426 188.718 277.685 188.597C279.071 188.413 280.548 188.436 282.136 188.35C283.82 188.341 285.462 187.907 286.843 187.107C288.245 186.09 289.279 184.771 289.832 183.296C290.525 181.782 291.031 180.142 291.912 178.553C292.658 176.937 294.081 175.599 295.919 174.783C297.708 174.046 299.601 173.764 301.23 173.177C302.028 172.903 302.76 172.513 303.393 172.026L303.83 171.663C303.969 171.537 304.086 171.393 304.211 171.261C304.456 170.999 304.671 170.72 304.856 170.426C305.52 169.326 306.034 168.167 306.388 166.972C307.082 164.797 307.837 163.018 308.857 162.034C309.059 161.81 309.292 161.605 309.55 161.424C309.661 161.343 309.758 161.263 309.855 161.199L310.139 161.05C310.312 160.977 310.491 160.914 310.673 160.86Z" fill="white"/>
<path d="M310.853 143.857C310.885 144.019 310.899 144.182 310.895 144.346C310.893 144.821 310.823 145.295 310.687 145.756C310.09 147.44 308.917 148.944 307.31 150.085C306.25 150.894 305.088 151.606 303.844 152.209C302.506 152.865 301.029 153.492 299.51 154.206C297.915 154.916 296.43 155.784 295.087 156.79C293.709 157.925 292.574 159.247 291.731 160.699C290.881 162.17 289.91 163.591 288.826 164.952C288.275 165.587 287.638 166.166 286.926 166.679C286.225 167.174 285.455 167.597 284.632 167.94C283.142 168.547 281.59 169.042 279.993 169.419C278.51 169.799 277.123 170.138 275.916 170.57C274.822 170.932 273.78 171.395 272.81 171.952C272.081 172.371 271.426 172.873 270.862 173.442C270.39 173.936 269.997 174.478 269.69 175.054C269.74 174.894 269.805 174.739 269.885 174.588C270.112 174.153 270.403 173.743 270.751 173.367C271.304 172.774 271.958 172.251 272.693 171.813C273.666 171.237 274.715 170.754 275.819 170.374C277.155 169.923 278.518 169.529 279.903 169.194C281.477 168.809 283.008 168.312 284.479 167.709C285.26 167.371 285.992 166.962 286.663 166.489C287.347 165.983 287.961 165.416 288.493 164.797C289.563 163.442 290.524 162.031 291.371 160.572C292.241 159.088 293.413 157.741 294.837 156.589C296.204 155.567 297.718 154.69 299.344 153.976C300.869 153.268 302.346 152.652 303.684 152.002C304.925 151.419 306.087 150.728 307.151 149.941C308.744 148.834 309.926 147.375 310.562 145.733C310.74 145.118 310.838 144.489 310.853 143.857Z" fill="white"/>
<path d="M268.748 157.636C268.72 157.601 268.699 157.562 268.685 157.521C268.633 157.41 268.589 157.297 268.553 157.181C268.435 156.724 268.458 156.248 268.623 155.8C269.011 154.649 270.543 153.17 273.012 152.439C274.246 152.088 275.639 151.863 277.095 151.564C278.304 151.397 279.448 150.993 280.431 150.386C281.414 149.778 282.208 148.984 282.746 148.07C283.14 147.399 283.485 146.709 283.779 146.004C284.321 144.471 285.058 142.991 285.977 141.589C287.03 140.21 288.628 139.178 290.497 138.67C292.198 138.212 293.932 137.847 295.69 137.577C297.259 137.327 298.778 136.897 300.204 136.299C301.411 135.726 302.453 134.94 303.254 133.997C304.438 132.634 305.113 131.013 305.196 129.334C305.199 128.718 305.15 128.103 305.05 127.493C305.26 128.09 305.355 128.712 305.334 129.334C305.307 131.049 304.655 132.717 303.462 134.118C302.651 135.092 301.587 135.904 300.349 136.495C298.905 137.115 297.362 137.562 295.766 137.824C294.025 138.099 292.307 138.466 290.622 138.924C288.827 139.412 287.293 140.403 286.282 141.727C285.377 143.111 284.65 144.569 284.112 146.078C283.812 146.797 283.458 147.498 283.051 148.179C282.64 148.833 282.117 149.434 281.498 149.964C280.28 150.885 278.781 151.513 277.165 151.777C275.695 152.088 274.308 152.283 273.095 152.617C270.689 153.296 269.164 154.695 268.754 155.812C268.586 156.242 268.541 156.699 268.623 157.147C268.681 157.307 268.723 157.47 268.748 157.636Z" fill="white"/>
<path d="M308.288 188.718C308.317 188.838 308.333 188.959 308.337 189.081C308.35 189.43 308.306 189.778 308.205 190.117C307.77 191.365 306.848 192.458 305.584 193.225C304.741 193.783 303.807 194.241 302.811 194.584C301.75 194.958 300.579 195.257 299.345 195.574C298.063 195.884 296.81 196.269 295.594 196.725C294.33 197.226 293.197 197.928 292.259 198.791C291.246 199.666 290.373 200.627 289.402 201.479C288.474 202.304 287.395 203.004 286.206 203.551C284.182 204.468 281.918 204.958 279.612 204.979C278.068 204.993 276.533 204.78 275.078 204.352C274.683 204.239 274.298 204.102 273.927 203.943C273.792 203.896 273.664 203.836 273.546 203.764C273.686 203.796 273.822 203.837 273.955 203.885C274.336 204.02 274.725 204.14 275.12 204.242C276.573 204.62 278.09 204.797 279.612 204.766C281.867 204.717 284.074 204.218 286.047 203.31C287.199 202.768 288.244 202.083 289.146 201.278C290.096 200.437 290.962 199.482 291.995 198.584C292.989 197.689 294.186 196.965 295.517 196.454C296.752 195.997 298.024 195.612 299.324 195.303C300.544 194.992 301.709 194.728 302.79 194.348C303.758 194.019 304.667 193.583 305.494 193.053C306.737 192.324 307.663 191.283 308.136 190.083C308.238 189.633 308.289 189.176 308.288 188.718Z" fill="white"/>
<path d="M304.883 112.429L299.101 112.544C298.879 113.512 298.436 114.436 297.798 115.267C292.944 108.302 289.221 98.9778 288.292 95.2307C288.431 94.8565 288.59 94.4421 288.791 93.9816C288.935 93.2822 288.91 92.5659 288.715 91.875C288.549 91.0404 288.271 89.918 288.188 89.3999C287.932 87.8113 287.62 87.5638 286.954 87.7422C286.053 87.9897 287.328 92.1916 286.587 92.2837C286.184 92.3297 285.699 90.8907 285.56 89.7108C285.422 88.5308 284.77 84.8931 284.306 84.6513C283.612 84.2944 283.009 84.8585 283.189 86.0327C283.37 87.2069 283.584 90.7756 282.836 90.8274C282.087 90.8792 281.449 84.847 281.449 84.847C281.449 84.847 281.567 83.5347 280.693 83.5634C279.126 83.621 280.354 89.9755 280.485 90.5799C280.582 90.9943 279.792 91.0749 279.695 90.6202C279.598 90.1655 279.237 84.5937 277.615 84.6398C276.381 84.6398 278.565 89.8719 277.871 91.0807C277.178 92.2894 276.707 86.9825 275.535 87.0515C275.098 87.0803 274.772 87.1494 275.577 90.1482C276.347 92.5309 277.273 94.877 278.35 97.1762C280.208 105.493 288.362 132.103 301.139 127.234C308.295 124.505 311.193 112.429 311.193 112.429H304.883Z" fill="#B78876"/>
<path d="M280.236 90.9828C280.29 90.9943 280.348 90.9943 280.402 90.9828C280.486 90.9616 280.558 90.9163 280.605 90.8551C280.652 90.7939 280.671 90.7208 280.659 90.649C280.659 90.2921 280.575 89.7741 280.478 89.1006C280.316 88.289 280.209 87.4703 280.159 86.6486C280.159 86.1651 280.159 85.6471 280.194 85.1003C280.204 84.8222 280.239 84.5452 280.298 84.2714C280.354 84.0124 280.562 83.6958 280.804 83.7476H280.846C281.089 83.7476 281.283 83.8973 281.359 84.139C281.445 84.3895 281.477 84.6505 281.456 84.9103C281.599 86.5223 281.847 88.1267 282.198 89.7165C282.253 89.9295 282.309 90.1482 282.392 90.3669C282.429 90.4789 282.475 90.5885 282.531 90.695C282.566 90.7543 282.606 90.8119 282.649 90.8677C282.68 90.9098 282.722 90.9452 282.773 90.9712C282.823 90.9972 282.88 91.013 282.94 91.0173C283.041 91.0081 283.136 90.9742 283.214 90.9199C283.292 90.8656 283.348 90.7933 283.377 90.7123C283.436 90.5997 283.48 90.4819 283.508 90.3612C283.562 90.1292 283.599 89.8947 283.619 89.6589C283.682 88.6998 283.666 87.7383 283.571 86.781C283.483 86.303 283.46 85.8185 283.501 85.3363C283.526 85.128 283.648 84.936 283.841 84.801C283.885 84.779 283.935 84.7651 283.986 84.7601C284.038 84.7552 284.09 84.7593 284.139 84.7722C284.198 84.7839 284.254 84.8033 284.306 84.8297C284.341 84.8516 284.367 84.8817 284.382 84.9161C284.6 85.3828 284.761 85.8669 284.86 86.3608C284.985 86.8673 285.089 87.3911 285.186 87.9149C285.283 88.4387 285.373 88.9682 285.45 89.5035C285.509 90.0559 285.616 90.6041 285.768 91.144C285.85 91.42 285.955 91.6911 286.08 91.9556C286.151 92.1036 286.25 92.2415 286.372 92.3642C286.419 92.4153 286.482 92.4542 286.554 92.4766C286.627 92.499 286.705 92.504 286.781 92.4909C286.851 92.4716 286.914 92.4377 286.964 92.3923C287.014 92.3469 287.048 92.2917 287.065 92.2318C287.147 91.9377 287.173 91.6347 287.141 91.3339C287.141 91.0461 287.1 90.7583 287.065 90.482C287.016 89.9985 286.961 89.5208 286.94 89.0488C286.923 88.8169 286.923 88.5843 286.94 88.3524C286.954 88.2497 286.984 88.149 287.03 88.053C287.045 88.0214 287.066 87.9922 287.093 87.9667H287.183C287.64 87.8113 287.793 88.3408 287.918 88.7668C288.043 89.1927 288.091 89.6762 288.202 90.1309C288.382 91.0346 288.618 91.9383 288.736 92.8017C288.816 93.2151 288.797 93.6376 288.68 94.045C288.514 94.4594 288.348 94.868 288.188 95.2767V95.317V95.3515C289 98.1793 290.036 100.96 291.287 103.675C292.383 106.132 293.485 108.279 294.449 110.006C295.413 111.733 296.286 113.086 296.882 113.995L297.576 115.025C297.651 115.148 297.742 115.264 297.846 115.371C297.788 115.243 297.716 115.119 297.631 115.002L296.938 113.949C296.369 113.022 295.551 111.647 294.608 109.92C293.665 108.193 292.598 106.046 291.53 103.588C290.308 100.877 289.294 98.1052 288.493 95.2882V95.3688C288.653 94.9659 288.812 94.5572 288.979 94.1486C289.123 93.7 289.151 93.2312 289.062 92.7729C288.937 91.8692 288.708 90.9943 288.528 90.0849C288.424 89.6359 288.355 89.1755 288.244 88.7035C288.237 88.461 288.188 88.2206 288.098 87.9897C288.019 87.8493 287.884 87.7356 287.717 87.6674C287.539 87.6191 287.347 87.6191 287.169 87.6674H287.058C286.999 87.683 286.945 87.7085 286.899 87.7422C286.822 87.7964 286.762 87.8657 286.725 87.9437C286.662 88.0683 286.622 88.2003 286.607 88.3351C286.587 88.5842 286.587 88.8342 286.607 89.0834C286.607 89.5668 286.691 90.0503 286.739 90.5338C286.739 90.8159 286.795 91.1094 286.808 91.3684C286.836 91.6281 286.82 91.8896 286.76 92.1455C286.76 92.2031 286.704 92.1916 286.76 92.2203L286.718 92.1858C286.63 92.0918 286.56 91.9869 286.51 91.875C286.389 91.626 286.29 91.3702 286.212 91.1094C286.06 90.5853 285.956 90.0523 285.9 89.515C285.826 88.974 285.736 88.4387 285.63 87.9091C285.533 87.3796 285.422 86.8616 285.297 86.3435C285.193 85.8163 285.016 85.3006 284.77 84.8067C284.723 84.7242 284.648 84.6544 284.555 84.6053C284.474 84.5664 284.388 84.5355 284.299 84.5132C284.2 84.4916 284.097 84.4866 283.996 84.4985C283.894 84.5103 283.797 84.5388 283.709 84.5822C283.566 84.6709 283.447 84.7832 283.359 84.9119C283.27 85.0407 283.215 85.1832 283.196 85.3305C283.151 85.592 283.151 85.8575 283.196 86.1191C283.196 86.3666 283.266 86.6083 283.286 86.8501C283.383 87.7918 283.404 88.7379 283.349 89.682C283.333 89.9062 283.298 90.1293 283.245 90.3497C283.225 90.4526 283.19 90.5531 283.141 90.649C283.123 90.6869 283.097 90.722 283.065 90.7526C283.065 90.8044 283.016 90.7526 283.023 90.8216C283.023 90.7641 283.023 90.8216 283.023 90.7468C282.992 90.7079 282.964 90.6676 282.94 90.6259C282.891 90.5338 282.85 90.4302 282.808 90.3324C282.732 90.1252 282.676 89.9122 282.621 89.705C282.259 88.1289 281.998 86.538 281.837 84.9391C281.858 84.6497 281.818 84.3595 281.719 84.0815C281.674 83.9364 281.58 83.8049 281.449 83.7016C281.381 83.6472 281.301 83.6048 281.213 83.5771C281.124 83.5494 281.03 83.5369 280.936 83.5404H280.978C280.86 83.5262 280.74 83.5409 280.633 83.5829C280.526 83.6249 280.436 83.6922 280.374 83.7764C280.271 83.9137 280.201 84.0661 280.166 84.2254C280.108 84.5108 280.076 84.7994 280.069 85.0888C280.069 85.6643 280.069 86.1651 280.069 86.6544C280.135 87.4813 280.262 88.304 280.451 89.1179C280.569 89.7856 280.659 90.3036 280.7 90.6547C280.714 90.7162 280.701 90.7796 280.664 90.8342C280.627 90.8887 280.569 90.9311 280.499 90.954C280.291 90.9713 280.229 90.977 280.236 90.9828Z" fill="#A36957"/>
<path d="M235.08 120.355C233.727 120.331 232.376 120.461 231.065 120.741C227.481 121.524 221.303 124.632 221.047 128.471H225.54C225.54 128.471 223.023 132.915 223.758 132.5C225.678 131.43 229.492 128.212 229.492 128.212L235.08 120.355Z" fill="#B78876"/>
<path d="M296.321 53.4544C296.217 53.4544 295.815 50.3807 295.413 46.5473C295.011 42.7139 294.761 39.6402 294.858 39.6402C294.955 39.6402 295.364 42.7139 295.767 46.5473C296.169 50.3807 296.418 53.4544 296.321 53.4544Z" fill="#263238"/>
<path d="M316.018 39.8762C316.095 39.9222 313.065 43.5772 309.244 48.0381C305.424 52.4989 302.256 56.0963 302.173 56.0273C302.089 55.9582 305.126 52.3262 308.946 47.8654C312.767 43.4045 315.935 39.8301 316.018 39.8762Z" fill="#263238"/>
<path d="M324.2 56.4417C324.2 56.5223 320.678 57.1958 316.296 57.9441C311.914 58.6924 308.336 59.2335 308.316 59.1529C308.295 59.0723 311.831 58.3989 316.219 57.6505C320.608 56.9022 324.151 56.3612 324.2 56.4417Z" fill="#263238"/>
<path d="M88.4205 135.499L63.8768 240.142L60.6875 253.841L224.312 253.184C231.662 253.156 238.179 247.739 240.529 239.693L269.552 140.904C271.347 134.797 267.409 128.442 261.835 128.448L96.1858 128.592C92.5805 128.586 89.3496 131.418 88.4205 135.499Z" fill="#3366FF"/>
<g opacity="0.5">
<path opacity="0.5" d="M88.4205 135.499L63.8768 240.142L60.6875 253.841L224.312 253.184C231.662 253.156 238.179 247.739 240.529 239.693L269.552 140.904C271.347 134.797 267.409 128.442 261.835 128.448L96.1858 128.592C92.5805 128.586 89.3496 131.418 88.4205 135.499Z" fill="black"/>
</g>
<path d="M208.636 233.039L191.303 117.109C190.61 112.36 186.041 108.815 180.654 108.832L142.66 108.93C141.248 108.943 139.854 109.195 138.563 109.67C137.272 110.145 136.111 110.833 135.151 111.693L117.124 127.619L11.4616 128.091C5.00677 128.12 0.0425585 133.197 0.895349 138.895L16.9874 246.041C17.6808 250.784 22.2498 254.324 27.623 254.318L211.805 254.013C232.313 254.364 234.276 249.339 234.276 249.339C210.73 253.662 208.636 233.067 208.636 233.039Z" fill="#3366FF"/>
<path d="M234.935 60.2348C234.71 60.1563 234.517 60.0263 234.379 59.8602C234.24 59.694 234.161 59.4986 234.151 59.2966L233.874 53.9551C233.864 53.7891 233.901 53.6235 233.982 53.4714C234.062 53.3193 234.184 53.1849 234.339 53.0788C234.493 52.9727 234.674 52.8978 234.869 52.8601C235.064 52.8224 235.267 52.8228 235.462 52.8614C235.998 52.9576 236.553 52.9618 237.092 52.8737C237.631 52.7856 238.143 52.6071 238.595 52.3492C239.012 52.1301 239.371 51.8423 239.649 51.5038C239.927 51.1652 240.118 50.783 240.211 50.3807C240.274 49.9733 240.237 49.5596 240.104 49.1641C239.971 48.7686 239.743 48.3994 239.434 48.0783C239.109 47.713 238.701 47.4044 238.232 47.1704C237.763 46.9363 237.244 46.7812 236.703 46.7141C235.612 46.6638 234.532 46.9205 233.639 47.4428C232.745 47.9651 232.091 48.7224 231.78 49.5921C231.676 49.8556 231.454 50.0758 231.16 50.2068C230.866 50.3378 230.522 50.3695 230.2 50.2953C229.879 50.2211 229.604 50.0468 229.433 49.8085C229.263 49.5703 229.209 49.2866 229.284 49.0165C229.756 47.6486 230.78 46.4572 232.186 45.6427C233.591 44.8282 235.291 44.4403 237.001 44.5442C237.89 44.6426 238.747 44.8884 239.52 45.2671C240.293 45.6458 240.967 46.1497 241.5 46.7487C242.02 47.3038 242.4 47.9399 242.618 48.6191C242.835 49.2983 242.887 50.0069 242.769 50.703C242.612 51.398 242.284 52.0589 241.807 52.645C241.33 53.231 240.714 53.7298 239.996 54.1105C238.956 54.6919 237.741 55.0208 236.488 55.0602L236.703 59.1814C236.711 59.3625 236.664 59.5423 236.566 59.7042C236.468 59.8662 236.322 60.0049 236.142 60.1077C235.962 60.2104 235.754 60.2738 235.537 60.292C235.32 60.3102 235.101 60.2826 234.9 60.2117L234.935 60.2348Z" fill="#3366FF"/>
<path d="M236.834 62.4221C236.848 62.5959 236.801 62.7694 236.696 62.9207C236.592 63.072 236.436 63.1941 236.248 63.2718C236.06 63.3495 235.849 63.3791 235.641 63.357C235.433 63.3348 235.237 63.2619 235.079 63.1474C234.921 63.033 234.807 62.8821 234.752 62.7139C234.697 62.5458 234.703 62.3678 234.77 62.2027C234.837 62.0375 234.961 61.8925 235.128 61.7861C235.294 61.6796 235.494 61.6165 235.704 61.6047C235.843 61.5961 235.982 61.6105 236.115 61.647C236.247 61.6835 236.369 61.7415 236.474 61.8175C236.579 61.8935 236.665 61.9861 236.727 62.0899C236.789 62.1937 236.825 62.3066 236.834 62.4221Z" fill="#3366FF"/>
<path d="M212.658 52.7003C212.688 52.5865 212.709 52.4711 212.72 52.355C212.72 52.1017 212.797 51.7794 212.852 51.3247C212.92 50.7664 213.034 50.2126 213.192 49.667C213.282 49.3446 213.331 48.9878 213.469 48.6252C213.608 48.2625 213.747 47.8711 213.899 47.474C214.702 45.5062 215.872 43.6552 217.366 41.9886C219.324 39.8305 221.807 38.0381 224.653 36.7277C226.273 35.9694 227.998 35.378 229.79 34.9664C231.725 34.5407 233.717 34.324 235.718 34.3217C236.772 34.3077 237.826 34.3538 238.873 34.4599C239.407 34.5059 239.934 34.621 240.467 34.6958C241.007 34.7726 241.54 34.8803 242.062 35.0182C244.247 35.5252 246.326 36.3075 248.226 37.3378C252.449 39.6121 255.667 42.966 257.391 46.8926C258.32 48.996 258.79 51.2199 258.778 53.4601C258.807 55.7679 258.315 58.0598 257.329 60.2176L257.017 60.8737L256.975 60.9601L257.017 61.0464C258.757 64.3676 260.484 67.6312 262.113 70.7912L262.404 70.5149L252.004 67.2052L251.88 67.1649L251.776 67.2455C249.024 69.4585 245.656 71.0721 241.972 71.9423C238.824 72.6619 235.527 72.819 232.3 72.4033C229.074 71.9876 225.99 71.0085 223.252 69.5306C221.01 68.3099 219.034 66.7821 217.407 65.0122C215.051 62.4289 213.524 59.3905 212.97 56.1827C212.887 55.6071 212.818 55.1236 212.755 54.6861C212.693 54.2487 212.755 53.8918 212.72 53.5867C212.686 53.2817 212.72 53.0802 212.72 52.9133C212.755 52.9089 212.786 52.8939 212.808 52.8712C212.83 52.8485 212.841 52.8198 212.838 52.7908C212.835 52.7619 212.82 52.7348 212.794 52.7151C212.768 52.6953 212.735 52.6844 212.7 52.6844C212.665 52.6844 212.631 52.6953 212.605 52.7151C212.58 52.7348 212.564 52.7619 212.561 52.7908C212.559 52.8198 212.569 52.8485 212.591 52.8712C212.613 52.8939 212.644 52.9089 212.679 52.9133C212.679 53.0802 212.679 53.3047 212.679 53.5867C212.679 53.8688 212.679 54.2602 212.679 54.6976C212.679 55.1351 212.797 55.6358 212.866 56.2057C213.094 57.5901 213.491 58.9517 214.052 60.2694C214.845 62.0094 215.913 63.6546 217.227 65.1619C218.86 66.9633 220.85 68.5205 223.113 69.7666C225.885 71.2814 229.012 72.2895 232.289 72.7242C235.565 73.1589 238.916 73.0101 242.117 72.2877C245.846 71.4085 249.256 69.7794 252.046 67.5448L251.817 67.5851L262.217 70.912L262.737 71.079L262.508 70.6358C260.858 67.4758 259.152 64.2179 257.419 60.891V61.0579L257.738 60.3845C258.75 58.1797 259.253 55.8366 259.222 53.4774C259.244 51.1896 258.774 48.917 257.835 46.766C256.073 42.7611 252.784 39.3435 248.468 37.0327C246.521 35.9784 244.388 35.1822 242.145 34.6728C241.615 34.5334 241.072 34.4276 240.523 34.3562C239.982 34.2757 239.448 34.1605 238.907 34.1203C237.847 34.011 236.779 33.961 235.711 33.9706C233.678 33.9777 231.655 34.2061 229.693 34.6498C227.877 35.078 226.129 35.6847 224.486 36.4572C221.612 37.7997 219.114 39.6342 217.158 41.8389C215.668 43.5331 214.514 45.4141 213.74 47.4107C213.594 47.8251 213.455 48.2222 213.331 48.5618C213.22 48.9088 213.132 49.2604 213.067 49.6152C212.918 50.1645 212.821 50.7226 212.776 51.2844C212.734 51.7276 212.707 52.0672 212.686 52.3204C212.657 52.4455 212.647 52.5732 212.658 52.7003Z" fill="#263238"/>
<path opacity="0.5" d="M129.216 209.854L123.004 215.391L75.1646 179.659L81.3767 174.121L129.216 209.854Z" fill="white"/>
<path opacity="0.5" d="M120.404 172.895L127.267 178.024L83.9832 216.617L77.1123 211.489L120.404 172.895Z" fill="white"/>
</svg>
