<svg width="16" height="16" viewBox="0 0 16 16" fill="none" xmlns="http://www.w3.org/2000/svg">
<g clip-path="url(#clip0_8043_1878)">
<path fill-rule="evenodd" clip-rule="evenodd" d="M10.6663 6.00016C10.6663 6.70741 10.3854 7.38568 9.88529 7.88578C9.3852 8.38588 8.70692 8.66683 7.99967 8.66683C7.29243 8.66683 6.61415 8.38588 6.11406 7.88578C5.61396 7.38568 5.33301 6.70741 5.33301 6.00016C5.33301 5.29292 5.61396 4.61464 6.11406 4.11454C6.61415 3.61445 7.29243 3.3335 7.99967 3.3335C8.70692 3.3335 9.3852 3.61445 9.88529 4.11454C10.3854 4.61464 10.6663 5.29292 10.6663 6.00016ZM9.33301 6.00016C9.33301 6.35378 9.19253 6.69292 8.94248 6.94297C8.69243 7.19302 8.3533 7.3335 7.99967 7.3335C7.64605 7.3335 7.30691 7.19302 7.05687 6.94297C6.80682 6.69292 6.66634 6.35378 6.66634 6.00016C6.66634 5.64654 6.80682 5.3074 7.05687 5.05735C7.30691 4.80731 7.64605 4.66683 7.99967 4.66683C8.3533 4.66683 8.69243 4.80731 8.94248 5.05735C9.19253 5.3074 9.33301 5.64654 9.33301 6.00016Z" fill="#1E1E1E"/>
<path fill-rule="evenodd" clip-rule="evenodd" d="M7.99984 0.666748C3.94984 0.666748 0.666504 3.95008 0.666504 8.00008C0.666504 12.0501 3.94984 15.3334 7.99984 15.3334C12.0498 15.3334 15.3332 12.0501 15.3332 8.00008C15.3332 3.95008 12.0498 0.666748 7.99984 0.666748ZM1.99984 8.00008C1.99984 9.39341 2.47517 10.6761 3.27184 11.6947C3.83132 10.96 4.5531 10.3646 5.38079 9.95496C6.20848 9.54533 7.11967 9.33261 8.04317 9.33342C8.95472 9.33255 9.85445 9.53976 10.6738 9.93927C11.4931 10.3388 12.2105 10.92 12.7712 11.6387C13.3488 10.8812 13.7377 9.99689 13.9058 9.05914C14.0738 8.12139 14.0161 7.1571 13.7375 6.24607C13.4589 5.33504 12.9673 4.50345 12.3035 3.82011C11.6397 3.13677 10.8227 2.62132 9.92009 2.31642C9.01751 2.01152 8.0553 1.92593 7.11308 2.06673C6.17085 2.20753 5.2757 2.57068 4.50168 3.12612C3.72767 3.68156 3.09704 4.41333 2.66199 5.26088C2.22694 6.10843 1.99996 7.04739 1.99984 8.00008ZM7.99984 14.0001C6.62247 14.0021 5.28668 13.5283 4.2185 12.6587C4.64846 12.0432 5.22073 11.5407 5.88663 11.1939C6.55254 10.847 7.29236 10.6662 8.04317 10.6667C8.78461 10.6662 9.5155 10.8425 10.1751 11.181C10.8347 11.5196 11.4041 12.0107 11.8358 12.6134C10.7594 13.5112 9.40156 14.002 7.99984 14.0001Z" fill="#1E1E1E"/>
</g>
<defs>
<clipPath id="clip0_8043_1878">
<rect width="16" height="16" fill="currentColor"/>
</clipPath>
</defs>
</svg>
