<svg width="16" height="16" viewBox="0 0 16 16" fill="none" xmlns="http://www.w3.org/2000/svg">
<path d="M13.5001 8.37996V7.61496L14.4601 6.77496C14.6371 6.61898 14.7532 6.40547 14.788 6.17216C14.8228 5.93885 14.7739 5.70075 14.6501 5.49996L13.4701 3.49996C13.3824 3.34809 13.2564 3.22195 13.1045 3.13419C12.9527 3.04643 12.7805 3.00014 12.6051 2.99996C12.4965 2.99913 12.3884 3.01601 12.2851 3.04996L11.0701 3.45996C10.8604 3.32056 10.6415 3.19529 10.4151 3.08496L10.1601 1.82496C10.1144 1.59476 9.98917 1.38798 9.80635 1.24081C9.62354 1.09364 9.39478 1.01546 9.16013 1.01996H6.82013C6.58548 1.01546 6.35672 1.09364 6.1739 1.24081C5.99108 1.38798 5.86585 1.59476 5.82013 1.82496L5.56513 3.08496C5.33709 3.19526 5.11661 3.32053 4.90513 3.45996L3.71513 3.02996C3.61077 3.00277 3.50271 2.99264 3.39513 2.99996C3.21976 3.00014 3.04753 3.04643 2.89571 3.13419C2.74388 3.22195 2.61781 3.34809 2.53013 3.49996L1.35013 5.49996C1.23342 5.70045 1.19005 5.93529 1.22745 6.16424C1.26485 6.39319 1.38069 6.60202 1.55513 6.75496L2.50013 7.61996V8.38496L1.55513 9.22496C1.37576 9.37896 1.25675 9.59152 1.21923 9.82493C1.1817 10.0583 1.22807 10.2975 1.35013 10.5L2.53013 12.5C2.61781 12.6518 2.74388 12.778 2.89571 12.8657C3.04753 12.9535 3.21976 12.9998 3.39513 13C3.5038 13.0008 3.61189 12.9839 3.71513 12.95L4.93013 12.54C5.1399 12.6794 5.35871 12.8046 5.58513 12.915L5.84013 14.175C5.88585 14.4052 6.01108 14.6119 6.1939 14.7591C6.37672 14.9063 6.60548 14.9845 6.84013 14.98H9.20013C9.43478 14.9845 9.66354 14.9063 9.84635 14.7591C10.0292 14.6119 10.1544 14.4052 10.2001 14.175L10.4551 12.915C10.6832 12.8047 10.9036 12.6794 11.1151 12.54L12.3251 12.95C12.4284 12.9839 12.5365 13.0008 12.6451 13C12.8205 12.9998 12.9927 12.9535 13.1445 12.8657C13.2964 12.778 13.4224 12.6518 13.5101 12.5L14.6501 10.5C14.7668 10.2995 14.8102 10.0646 14.7728 9.83568C14.7354 9.60672 14.6196 9.3979 14.4451 9.24496L13.5001 8.37996ZM12.6051 12L10.8901 11.42C10.4887 11.76 10.0298 12.0258 9.53513 12.205L9.18013 14H6.82013L6.46513 12.225C5.97434 12.0407 5.51798 11.7754 5.11513 11.44L3.39513 12L2.21513 9.99996L3.57513 8.79996C3.48267 8.28239 3.48267 7.75253 3.57513 7.23496L2.21513 5.99996L3.39513 3.99996L5.11013 4.57996C5.51159 4.23991 5.97043 3.97409 6.46513 3.79496L6.82013 1.99996H9.18013L9.53513 3.77496C10.0259 3.95917 10.4823 4.22453 10.8851 4.55996L12.6051 3.99996L13.7851 5.99996L12.4251 7.19996C12.5176 7.71753 12.5176 8.24739 12.4251 8.76496L13.7851 9.99996L12.6051 12Z" fill="#1E1E1E"/>
<path d="M8 11C7.40666 11 6.82664 10.8241 6.33329 10.4944C5.83994 10.1648 5.45543 9.69623 5.22836 9.14805C5.0013 8.59987 4.94189 7.99667 5.05765 7.41473C5.1734 6.83279 5.45912 6.29824 5.87868 5.87868C6.29824 5.45912 6.83279 5.1734 7.41473 5.05765C7.99667 4.94189 8.59987 5.0013 9.14805 5.22836C9.69623 5.45543 10.1648 5.83994 10.4944 6.33329C10.8241 6.82664 11 7.40666 11 8C11.004 8.39508 10.9292 8.78699 10.7798 9.15278C10.6305 9.51857 10.4096 9.85088 10.1303 10.1303C9.85088 10.4096 9.51857 10.6305 9.15278 10.7798C8.78699 10.9292 8.39508 11.004 8 11ZM8 6C7.73567 5.99384 7.47284 6.04137 7.22741 6.1397C6.98197 6.23803 6.75904 6.38512 6.57208 6.57208C6.38512 6.75904 6.23803 6.98197 6.1397 7.22741C6.04137 7.47284 5.99384 7.73567 6 8C5.99384 8.26433 6.04137 8.52716 6.1397 8.77259C6.23803 9.01803 6.38512 9.24097 6.57208 9.42793C6.75904 9.61488 6.98197 9.76198 7.22741 9.86031C7.47284 9.95864 7.73567 10.0062 8 10C8.26433 10.0062 8.52716 9.95864 8.77259 9.86031C9.01803 9.76198 9.24097 9.61488 9.42793 9.42793C9.61488 9.24097 9.76198 9.01803 9.86031 8.77259C9.95864 8.52716 10.0062 8.26433 10 8C10.0062 7.73567 9.95864 7.47284 9.86031 7.22741C9.76198 6.98197 9.61488 6.75904 9.42793 6.57208C9.24097 6.38512 9.01803 6.23803 8.77259 6.1397C8.52716 6.04137 8.26433 5.99384 8 6Z" fill="#1E1E1E"/>
</svg>
