<svg width="16" height="16" viewBox="0 0 16 16" fill="none" xmlns="http://www.w3.org/2000/svg">
<g clip-path="url(#clip0_8043_1884)">
<path d="M8.57129 0.571533H2.857C2.5539 0.571533 2.26321 0.691941 2.04888 0.906268C1.83455 1.1206 1.71415 1.41129 1.71415 1.71439V12.0001L0.571289 15.4287L5.14272 14.2858H14.2856C14.5887 14.2858 14.8794 14.1654 15.0937 13.9511C15.308 13.7368 15.4284 13.4461 15.4284 13.143V7.42868" stroke="#FBFAFC" stroke-linecap="round" stroke-linejoin="round"/>
<path d="M9.55748 9.29948L6.12891 9.91663L6.70033 6.44234L12.106 1.05948C12.2122 0.952227 12.3386 0.867083 12.4779 0.808975C12.6171 0.750867 12.7666 0.720947 12.9175 0.720947C13.0684 0.720947 13.2178 0.750867 13.3571 0.808975C13.4964 0.867083 13.6227 0.952227 13.7289 1.05948L14.9403 2.27091C15.0473 2.37723 15.1322 2.50366 15.1902 2.64292C15.2481 2.78217 15.2779 2.93151 15.2779 3.08234C15.2779 3.23317 15.2481 3.38251 15.1902 3.52176C15.1322 3.66102 15.0473 3.78745 14.9403 3.89377L9.55748 9.29948Z" stroke="#FBFAFC" stroke-linecap="round" stroke-linejoin="round"/>
</g>
<defs>
<clipPath id="clip0_8043_1884">
<rect width="16" height="16" fill="white"/>
</clipPath>
</defs>
</svg>
